<svg id="lolo" xmlns="http://www.w3.org/2000/svg" xmlns:xlink="http://www.w3.org/1999/xlink" width="1291.665" height="1158.698" viewBox="0 0 1291.665 1158.698"><defs><filter id="a" x="26.336" y="0" width="1265.329" height="1158.698" filterUnits="userSpaceOnUse"><feOffset input="SourceAlpha"/><feGaussianBlur stdDeviation="16" result="b"/><feFlood flood-color="#ec00cf"/><feComposite operator="in" in2="b"/><feComposite in="SourceGraphic"/></filter><filter id="c" x="4.58" y="55.122" width="1160.844" height="1014.455" filterUnits="userSpaceOnUse"><feOffset input="SourceAlpha"/><feGaussianBlur stdDeviation="16" result="d"/><feFlood flood-color="#ec00cf"/><feComposite operator="in" in2="d"/><feComposite in="SourceGraphic"/></filter><filter id="e" x="0" y="115.349" width="1060" height="888" filterUnits="userSpaceOnUse"><feOffset input="SourceAlpha"/><feGaussianBlur stdDeviation="16" result="f"/><feFlood flood-color="#ec00cf"/><feComposite operator="in" in2="f"/><feComposite in="SourceGraphic"/></filter></defs><g transform="translate(10236 -2923.651)"><g id="triangle" transform="matrix(1, 0, 0, 1, -10236, 2923.65)" filter="url(#a)"><g transform="translate(985.82 1110.7) rotate(-161)" fill="none"><path d="M482,0,964,792H0Z" stroke="none"/><path d="M 482 21.1588134765625 L 19.5714111328125 781 L 944.4285888671875 781 L 482 21.1588134765625 M 482 0 L 964 792 L 0 792 L 482 0 Z" stroke="none" fill="#ec00cf"/></g></g><g id="triangle" transform="matrix(1, 0, 0, 1, -10236, 2923.65)" filter="url(#c)"><g transform="translate(1007.2 1021.58) rotate(-172)" fill="none" opacity="0.6"><path d="M482,0,964,792H0Z" stroke="none"/><path d="M 482 21.1588134765625 L 19.5714111328125 781 L 944.4285888671875 781 L 482 21.1588134765625 M 482 0 L 964 792 L 0 792 L 482 0 Z" stroke="none" fill="#ec00cf"/></g></g><g id="triangle" transform="matrix(1, 0, 0, 1, -10236, 2923.65)" filter="url(#e)"><g transform="translate(1012 955.35) rotate(180)" fill="none" opacity="0.3"><path d="M482,0,964,792H0Z" stroke="none"/><path d="M 482 21.1588134765625 L 19.5714111328125 781 L 944.4285888671875 781 L 482 21.1588134765625 M 482 0 L 964 792 L 0 792 L 482 0 Z" stroke="none" fill="#ec00cf"/></g></g></g></svg>